<svg xmlns="http://www.w3.org/2000/svg" xmlns:xlink="http://www.w3.org/1999/xlink" width="24" height="24" viewBox="0 0 24 24">
    <defs>
        <linearGradient id="b" x1="10.963%" x2="181.978%" y1="50%" y2="-17.227%">
            <stop offset="0%" stop-color="#00BFA5"/>
            <stop offset="100%" stop-color="#3B058F"/>
            <stop offset="100%" stop-color="#3B058F"/>
        </linearGradient>
        <path id="a" d="M40.963 31.322c.21-.637.315-1.302.315-1.986C41.278 25.843 38.462 23 35 23c-3.462 0-6.278 2.843-6.278 6.336 0 .684.106 1.349.315 1.986C25.687 31.45 23 34.24 23 37.653c0 3.494 2.816 6.337 6.278 6.337a6.22 6.22 0 0 0 4.18-1.615L32.108 47h5.748l-1.366-4.673a6.221 6.221 0 0 0 4.233 1.663c3.462 0 6.278-2.843 6.278-6.337 0-3.412-2.687-6.203-6.037-6.331z"/>
    </defs>
    <g fill="none" fill-rule="nonzero" transform="translate(-23 -23)">
        <use fill="#00BFA5" xlink:href="#a"/>
        <use fill="url(#b)" xlink:href="#a"/>
    </g>
</svg>
