<?xml version="1.0" encoding="UTF-8"?>
<!DOCTYPE svg PUBLIC "-//W3C//DTD SVG 1.1//EN" "http://www.w3.org/Graphics/SVG/1.1/DTD/svg11.dtd">
<svg version="1.1" xmlns="http://www.w3.org/2000/svg" xmlns:xlink="http://www.w3.org/1999/xlink" x="0" y="0" width="528" height="675" viewBox="0, 0, 528, 675">
  <defs>
    <radialGradient id="Gradient_1" gradientUnits="userSpaceOnUse" cx="185.846" cy="271.384" r="30.395" gradientTransform="matrix(1, 0, 0, 0.709, 0, 79.011)">
      <stop offset="0" stop-color="#EFA496"/>
      <stop offset="1" stop-color="#EFA496" stop-opacity="0"/>
    </radialGradient>
    <radialGradient id="Gradient_2" gradientUnits="userSpaceOnUse" cx="419.634" cy="278.662" r="30.391" gradientTransform="matrix(1, 0, 0, 0.709, 0, 81.091)">
      <stop offset="0" stop-color="#EFA496"/>
      <stop offset="1" stop-color="#EFA496" stop-opacity="0"/>
    </radialGradient>
    <clipPath id="Clip_1">
      <path d="M0,675 L527.211,675 L527.211,0.129 L0,0.129 z"/>
    </clipPath>
  </defs>
  <g id="Layer_1">
    <path d="M331.787,638.072 C331.787,638.072 343.413,611.985 384.551,595.54 L392.398,635.502 L333.565,648.124 L331.787,638.072" fill="#C97E7C" id="path28474"/>
    <path d="M331.787,638.072 C331.787,638.072 353.694,619.747 397.873,623.053 L387.361,662.398 L328.966,647.883 L331.787,638.072" fill="#EA908D" id="path28476"/>
    <path d="M414.546,278.554 C414.546,249.455 438.135,225.865 467.234,225.865 C496.333,225.865 519.922,249.455 519.922,278.554 C519.922,307.652 496.333,331.242 467.234,331.242 C438.135,331.242 414.546,307.652 414.546,278.554" fill="#624B47" id="path28478"/>
    <path d="M360.214,336.766 C360.214,307.668 383.803,284.078 412.902,284.078 C442.001,284.078 465.59,307.668 465.59,336.766 C465.59,365.865 442.001,389.454 412.902,389.454 C383.803,389.454 360.214,365.865 360.214,336.766" fill="#624B47" id="path28480"/>
    <path d="M284.134,358.118 C284.134,329.019 307.724,305.43 336.822,305.43 C365.921,305.43 389.51,329.019 389.51,358.118 C389.51,387.217 365.921,410.806 336.822,410.806 C307.724,410.806 284.134,387.217 284.134,358.118" fill="#624B47" id="path28482"/>
    <path d="M217.384,346.475 C217.384,317.376 240.973,293.787 270.072,293.787 C299.171,293.787 322.76,317.376 322.76,346.475 C322.76,375.574 299.171,399.163 270.072,399.163 C240.973,399.163 217.384,375.574 217.384,346.475" fill="#624B47" id="path28484"/>
    <path d="M107.544,268.978 C107.544,239.879 131.134,216.29 160.233,216.29 C189.331,216.29 212.921,239.879 212.921,268.978 C212.921,298.077 189.331,321.666 160.233,321.666 C131.134,321.666 107.544,298.077 107.544,268.978" fill="#624B47" id="path28486"/>
    <g id="g28492">
      <path d="M141.579,326.326 C141.579,297.227 165.169,273.638 194.267,273.638 C223.366,273.638 246.955,297.227 246.955,326.326 C246.955,355.425 223.366,379.014 194.267,379.014 C165.169,379.014 141.579,355.425 141.579,326.326" fill="#624B47" id="path28488"/>
      <path d="M109.893,240.098 C91.27,173.389 124.325,99.58 152.539,66.294 C222.607,-16.376 340.813,-13.933 390.461,31.765 C426.13,33.65 448.022,55.257 465.636,76.035 C493.923,109.403 524.765,177.005 494.494,249.188 C451.029,351.642 384.663,353.492 296.343,353.492 C260.091,353.492 138.989,344.329 109.893,240.098" fill="#624B47" id="path28490"/>
    </g>
    <path d="M320.874,433.321 L262.06,448.915 L260.59,437.789 C245.73,415.787 264.757,404.106 275.62,403.769 C270.031,390.065 286.987,376.915 300.113,383.081 C311.434,360.392 331.688,374.073 331.688,374.073 C339.54,365.714 355.604,365.016 361.891,380.708 L320.874,433.321" fill="#D5BDBB" id="path28494"/>
    <path d="M326.341,414.691 C322.368,393.002 315.648,351.325 315.648,351.325 L282.195,355.081 C282.195,355.081 287.107,394.677 291.467,416.293 L326.341,414.691" fill="#F6C395" id="path28496"/>
    <path d="M203.316,364.345 C203.316,364.345 206.737,362.503 207.652,348.317 C208.567,334.131 211.65,325.581 218.948,322.029 C226.27,318.464 230.147,320.197 228.967,328.664 C227.811,337.13 224.487,353.133 226.076,367.404 C227.642,381.674 224.994,399.099 212.445,419.078 L177.45,383.637 L203.316,364.345" fill="#F6C395" id="path28498"/>
    <path d="M210.639,368.644 C206.906,366.308 191.323,357.505 191.323,357.505 C191.323,357.505 188.529,327.641 180.822,311.287 C173.115,294.933 157.316,286.082 144.792,293.536 L153.149,362.972 L193.201,399.58" fill="#F6C395" id="path28500"/>
    <g id="g28506">
      <path d="M131.185,193.041 C119.784,173.657 90.894,179.928 82.951,204.772 C75.006,229.625 108.336,272.482 150.641,257.076 L131.185,193.041" fill="#F6C395" id="path28502"/>
      <path d="M479.062,203.864 C491.666,185.231 520.088,193.28 526.471,218.574 C532.859,243.879 496.923,284.576 455.682,266.57 L479.062,203.864" fill="#F6C395" id="path28504"/>
    </g>
    <path d="M300.064,361.345 C404.742,364.6 490.956,323.906 494.565,208.141 C497.294,120.264 414.863,39.507 310.176,36.249 C205.509,32.988 118.206,108.465 115.468,196.344 C111.867,312.112 195.388,358.085 300.064,361.345" fill="#F9D8AE" id="path28508"/>
    <path d="M288.067,224.812 L288.047,224.861 C287.805,225.423 285.506,230.742 282.097,237.55 C278.696,244.351 274.152,252.665 269.59,259.066 L266.599,263.269 L270.675,266.43 C270.862,266.572 274.31,269.241 279.743,272.008 C282.461,273.39 285.678,274.798 289.261,275.907 C292.842,277.014 296.795,277.826 300.977,277.958 C303.944,278.05 306.424,275.719 306.516,272.752 C306.608,269.785 304.277,267.305 301.31,267.213 C298.324,267.122 295.295,266.523 292.438,265.637 C288.151,264.314 284.269,262.35 281.514,260.725 C280.136,259.914 279.038,259.19 278.303,258.682 C277.935,258.428 277.658,258.228 277.482,258.098 L277.294,257.958 L277.258,257.932 L277.256,257.93 L275.299,260.469 L277.264,257.936 L277.256,257.93 L275.299,260.469 L277.264,257.936 L273.969,262.183 L278.348,265.3 C280.993,261.583 283.513,257.485 285.831,253.409 C292.773,241.193 297.908,229.135 297.956,229.03 C299.12,226.299 297.851,223.142 295.12,221.977 C292.39,220.812 289.232,222.082 288.067,224.812" fill="#F3B991" id="path28510"/>
    <path d="M301.148,310.706 C302.317,310.743 303.521,310.761 304.756,310.761 C314.18,310.758 325.427,309.692 336.16,307.049 C341.526,305.724 346.764,304.003 351.586,301.778 C356.406,299.55 360.823,296.82 364.49,293.398 C366.369,291.642 366.469,288.695 364.713,286.816 C362.957,284.937 360.01,284.837 358.131,286.593 C355.409,289.141 351.83,291.409 347.683,293.321 C341.465,296.196 333.997,298.26 326.455,299.567 C318.913,300.88 311.292,301.448 304.756,301.447 C303.614,301.447 302.506,301.43 301.438,301.397 C298.867,301.317 296.718,303.336 296.638,305.907 C296.558,308.478 298.578,310.627 301.148,310.707" fill="#E77C56" id="path28512"/>
    <path d="M196.432,220.142 C196.858,206.864 206.266,196.373 217.448,196.724 C228.642,197.068 237.365,208.124 236.958,221.407 C236.54,234.692 227.141,245.185 215.948,244.837 C204.772,244.497 196.023,233.43 196.432,220.142" fill="#1A1919" id="path28514"/>
    <path d="M301.439,301.397 C292.741,301.129 281.511,299.612 271.117,296.566 C265.919,295.047 260.928,293.147 256.566,290.881 C252.201,288.618 248.481,285.986 245.755,283.097 C243.987,281.229 241.04,281.147 239.171,282.914 C237.303,284.682 237.221,287.629 238.988,289.498 C242.663,293.377 247.234,296.526 252.274,299.147 C259.839,303.07 268.494,305.811 277.042,307.67 C285.591,309.524 294.022,310.481 301.147,310.706 C303.718,310.787 305.867,308.769 305.948,306.198 C306.028,303.627 304.01,301.478 301.439,301.397" fill="#E77C56" id="path28516"/>
    <path d="M186.546,292.93 C186.088,292.93 185.631,292.923 185.168,292.908 C168.389,292.387 155.096,282.334 155.458,270.441 C155.827,258.882 168.989,249.838 185.155,249.838 C185.604,249.838 186.053,249.845 186.507,249.859 C203.305,250.38 216.604,260.449 216.234,272.331 C215.881,283.897 202.717,292.93 186.546,292.93 z" fill="url(#Gradient_1)" id="path28518"/>
    <path d="M241.633,148.519 C234.463,141.89 226.018,138.809 217.895,138.821 C204.432,138.824 191.939,147.117 186.554,160.212 C185.802,162.043 186.676,164.137 188.506,164.889 C190.337,165.641 192.43,164.768 193.183,162.937 C197.479,152.484 207.399,145.984 217.895,145.987 C224.235,145.999 230.816,148.308 236.774,153.787 C238.229,155.129 240.496,155.037 241.838,153.582 C243.18,152.127 243.088,149.86 241.633,148.519" fill="#1A1919" id="path28520"/>
    <path d="M412.259,226.863 C412.676,213.582 403.924,202.525 392.732,202.176 C381.54,201.827 372.16,212.316 371.743,225.602 C371.326,238.882 380.048,249.947 391.24,250.295 C402.432,250.644 411.851,240.147 412.259,226.863" fill="#1A1919" id="path28522"/>
    <path d="M420.336,300.209 C419.886,300.209 419.432,300.202 418.978,300.188 C402.188,299.669 388.878,289.607 389.251,277.716 C389.62,266.153 402.781,257.115 418.961,257.115 C419.413,257.115 419.87,257.122 420.326,257.137 C437.096,257.659 450.396,267.723 450.017,279.604 C449.664,291.176 436.51,300.21 420.336,300.209 z" fill="url(#Gradient_2)" id="path28524"/>
    <path d="M376.138,158.125 C381.9,153.448 388.02,151.472 393.872,151.464 C404.964,151.459 415.239,158.728 419.056,169.962 C419.693,171.836 421.728,172.839 423.602,172.202 C425.476,171.566 426.479,169.53 425.842,167.657 C421.06,153.582 408.116,144.302 393.872,144.297 C386.372,144.288 378.551,146.91 371.615,152.567 C370.08,153.816 369.848,156.073 371.097,157.608 C372.346,159.143 374.603,159.374 376.138,158.125" fill="#1A1919" id="path28526"/>
    <path d="M214.348,399.472 C212.926,416.669 217.623,398.121 203.606,459.597 L169.358,449.794 C182.677,393.111 179.353,402.652 179.353,402.652 C179.353,402.652 172.682,396.004 158.375,384.997 C144.021,373.99 134.627,355.157 137.445,340.898 C137.445,340.898 138.938,314.936 139.251,301.472 C139.589,288.009 156.232,293.212 157.243,304.434 C158.254,315.646 159.025,347.955 159.025,347.955 C159.025,347.955 165.119,358.938 183.447,365.032 C201.752,371.125 215.769,382.445 214.348,399.472" fill="#F9D8AE" id="path28528"/>
    <path d="M234.478,506.1 L196.563,511.091 L212.745,458.754 C198.872,444.11 161.348,438.047 154.532,442.454 C154.532,442.454 143.22,500.352 138.934,515.51 C131.613,541.404 140.324,553.227 158.798,559.645 C177.27,566.064 222.835,570.522 222.835,570.522 L234.478,506.1" fill="#D5BDBB" id="path28530"/>
    <path d="M260.59,437.789 L219.574,492.148 L259.771,657.453 L335.735,657.453 C335.735,657.453 364.406,480.109 366.877,456.622 C368.755,438.767 340.166,430.575 306.905,412.27 L281.544,434.862 L262.06,448.915 L260.59,437.789" fill="#F9DBD9" id="path28532"/>
    <path d="M341.972,437.054 C341.972,437.054 354.328,394.448 361.891,380.708 C361.891,380.708 340.6,363.523 326.848,384.838 C314.492,377.275 296.164,388.463 300.234,402.708 C289.396,401.842 269.212,411.355 281.544,434.862 L302.81,444.616 L341.972,437.054" fill="#F9DBD9" id="path28534"/>
    <path d="M344.694,657.453 L229.821,657.453 L212.879,588.775 C190.721,575.758 185.614,554.141 192.287,529.057 C198.91,503.961 232.773,465.871 232.773,465.871 C232.773,465.871 266.883,471.366 294.825,489.412 C294.825,489.412 285.299,569.444 295.989,595.359 C305.186,617.656 314.787,627.389 314.787,627.389 L349.545,630.869 L344.694,657.453" fill="#EA908D" id="path28536"/>
    <path d="M194.146,594.055 L305.436,588.317 C305.436,588.317 310.373,610.945 301.317,628.43 C278.702,625.347 203.136,622.924 189.938,623.864 L194.146,594.055" fill="#F9D8AE" id="path28538"/>
    <path d="M36.412,452.23 C42.724,458.365 51.947,467.415 56.021,467.778 C60.116,468.135 66.035,467.255 67.807,467.992 C69.58,468.728 71.465,469.682 75.082,473.896 C78.7,478.109 95.39,501.865 107.381,523.105 C119.407,544.31 126.521,560.026 134.839,576.794 C143.072,593.589 150.553,613.587 156.938,628.886 C163.296,644.171 173.104,665.424 178.717,675 L182.971,668.861 C182.971,668.861 173.505,651.875 168.525,640.858 C163.545,629.841 152.01,604.752 148.907,593.034 C145.825,581.309 139.213,570.893 134.731,561.839 C130.248,552.785 130.503,554.34 122.823,539.169 C115.107,524.033 107.277,512.292 99.526,499.699 C91.769,487.085 82.591,473.832 79.068,468.737 C75.517,463.63 75.659,463.861 75.84,457.358 C76.043,450.849 75.572,450.005 73.494,444.967 C71.415,439.928 65.541,427.74 65.541,427.74 L36.412,452.23" fill="#81BF63" id="path28540"/>
    <path d="M117.243,535.454 C111.204,529.971 99.845,520.942 92.115,514.168 C84.355,507.38 76.007,507.337 67.597,505.103 C59.181,502.847 55.615,501.382 55.615,501.382 C55.615,501.382 69.493,512.432 77.007,518.214 C84.521,523.998 91.475,525.626 98.876,527.577 C106.319,529.514 117.153,537.968 117.153,537.968 L117.243,535.454" fill="#81BF63" id="path28542"/>
    <path d="M116.149,531.282 C111.479,518.971 110.596,502.785 113.954,494.876 C117.318,486.988 120.049,480.542 119.667,472.97 C124.242,486.969 121.686,495.825 119.888,505.111 C118.109,514.393 119.102,535.288 119.102,535.288 L116.149,531.282" fill="#81BF63" id="path28544"/>
    <path d="M144.985,594.557 C139.808,583.647 136.849,579.621 130.957,575.795 C125.039,571.955 110.197,568.066 100.427,569.595 C90.659,571.123 76.505,574.388 76.505,574.388 C76.505,574.388 93.213,578.131 104.35,579.214 C115.507,580.293 137.394,579.082 144.985,594.557" fill="#81BF63" id="path28546"/>
    <g clip-path="url(#Clip_1)" id="g28552">
      <path d="M147.763,595.048 C146.028,584.47 141.696,568.738 140.537,560.742 C139.391,552.718 144.055,543.021 146.616,540.011 C149.191,536.975 159.298,536.676 164.952,532.587 C170.585,528.504 170.352,522.223 170.352,522.223 C170.352,522.223 170.721,528.715 163.142,530.181 C155.592,531.662 147.796,533.242 145.602,533.881 C143.408,534.451 138.625,536.979 137.281,547.137 C135.986,557.304 134.788,569.327 134.788,569.327 L147.763,595.048" fill="#81BF63" id="path28548"/>
      <path d="M29.516,458.319 C30.156,458.373 31.605,459.624 32.337,459.535 C32.984,459.471 34.074,460.972 34.758,460.805 C35.437,460.617 35.991,459.661 36.621,459.395 C37.244,459.178 37.35,457.671 37.967,457.363 C38.579,457.034 39.323,456.986 39.88,456.629 C40.486,456.208 39.972,454.712 40.474,454.255 C41.012,453.766 44.179,455.356 44.495,454.82 C45.035,453.892 44.799,452.4 44.864,451.943 C45.012,450.721 43.021,451.642 44.666,451.751 C45.423,451.814 45.753,451.987 46.245,452.087 C46.798,452.236 47.791,450.844 48.376,451.169 C48.795,451.406 49.469,451.427 50.08,451.835 C50.685,452.221 51.47,451.493 52.16,451.715 C52.816,451.97 52.86,454.398 53.568,454.453 C54.248,454.494 54.803,453.101 55.509,452.926 C56.172,452.766 57.794,454.792 58.455,454.471 C59.129,454.123 58.816,451.941 59.418,451.729 C60.118,451.465 60.974,451.774 61.581,451.653 C62.294,451.5 62.996,451.465 63.623,451.408 C64.388,451.353 65.049,450.963 65.696,450.968 C66.906,450.936 68.304,452.02 68.679,451.673 C68.996,451.436 67.489,450.662 66.906,449.094 C66.636,448.373 67.089,447.61 66.785,447.152 C66.332,446.511 66.69,445.225 66.265,444.897 C65.622,444.384 66.107,444.83 66.162,444.123 C66.204,443.373 65.791,443.156 66.56,442.594 C67.245,442.059 67.898,439.575 68.784,439.76 C69.828,440.009 70.126,442.218 70.491,442.059 C70.778,441.946 70.277,440.928 70.674,439.768 C71.035,438.712 70.098,437.623 70.297,437.008 C70.586,436.019 72.707,437.43 73.856,437.347 C74.845,437.27 75.181,436.796 75.807,437.108 C76.35,437.445 77.195,437.274 78.139,436.242 C80.071,434.096 78.218,435.389 78.316,433.931 C78.342,433.278 79.911,432.327 80.346,431.732 C80.825,431.052 82.389,431.785 82.839,431.529 C83.254,431.308 83.374,429.406 84.206,429.122 C85.102,428.82 86.978,429.593 87.222,429.195 C87.389,428.844 86.15,426.721 86.937,425.992 C87.501,425.516 90.43,427.226 90.963,426.647 C91.483,426.023 91.711,424.617 91.952,423.989 C92.293,423.238 92.908,422.77 93.22,422.073 C93.553,421.372 92.915,420.212 93.18,419.438 C93.409,418.769 92.372,417.733 92.521,416.882 C92.683,416.001 95.527,415.966 95.771,415.269 C96.023,414.454 95.963,413.229 96.055,412.417 C96.083,411.695 93.737,411.114 93.344,410.224 C93.066,409.551 95.292,407.981 95.072,407.199 C94.878,406.43 94.26,405.633 94.011,404.905 C93.726,404.141 92.183,403.771 91.723,403.179 C91.234,402.571 90.187,402.759 89.386,402.48 C88.627,402.188 87.952,402.604 87.411,402.497 C86.616,402.308 86.539,402.286 85.945,402.448 C85.394,402.597 83.93,400.637 83.199,401.026 C82.209,401.541 82.232,401.396 81.856,401.445 C81.459,401.499 81.166,403.731 80.045,403.46 C78.93,403.209 79.327,404.628 78.688,404.943 C78.043,405.236 76.529,403.705 75.398,403.62 C74.454,403.547 73.307,404.595 72.825,404.377 C72.364,404.153 71.729,402.854 71.527,401.766 C71.412,401.25 72.089,400.393 72.001,399.523 C71.92,398.673 74.015,398.227 74.081,397.631 C74.224,396.758 70.503,395.386 70.639,394.79 C70.8,394.049 73.244,393.472 72.624,392.813 C72.263,392.465 71.752,391.566 70.919,391.111 C70.176,390.722 68.094,393.052 67.516,392.749 C66.76,392.317 66.851,390.839 66.292,390.598 C65.569,390.272 65.191,387.88 64.433,387.885 C63.835,387.888 63.105,389.382 62.259,389.624 C61.329,389.89 61.218,392.043 60.574,392.268 C59.706,392.584 58.935,392.917 58.2,393.146 C57.508,393.362 56.073,389.942 55.133,390.028 C53.865,390.17 53.526,394.029 52.983,394.06 C52.391,394.084 51.654,390.538 50.366,390.617 C49.538,390.691 48.877,393.223 48.232,393.148 C47.517,393.071 47.482,393.773 46.749,394.002 C46.176,394.158 44.995,392.662 44.303,393.177 C43.683,393.623 43.205,394.233 42.653,394.75 C42.115,395.309 40.421,394.826 39.924,395.372 C39.433,395.939 38.8,396.274 38.297,396.8 C37.722,397.393 39.01,400.192 38.42,400.514 C37.766,400.857 36.564,400.472 35.782,400.693 C35.041,400.901 34.453,402.19 33.699,402.356 C32.861,402.548 31.277,399.244 30.586,399.39 C29.881,399.564 29.71,402.265 28.964,402.383 C28.26,402.487 28.105,402.95 27.388,403.381 C26.867,403.705 24.338,402.168 23.809,402.909 C23.424,403.443 25.674,406.08 25.254,406.58 C24.814,407.085 22.172,405.63 21.74,406.087 C21.263,406.627 22.423,408.499 22.038,408.964 C21.54,409.58 21.432,409.751 21.332,410.244 C21.247,410.707 18.957,410.524 18.322,411.298 C17.868,411.831 18.784,413.732 18.223,414.298 C17.649,414.893 15.781,414.07 15.243,414.561 C14.5,415.206 15.282,417.933 14.888,418.148 C14.432,418.382 12.49,416.662 11.758,417.19 C11.201,417.618 11.448,419.152 10.98,419.643 C10.328,420.284 9.045,420.524 9,421.044 C8.975,421.628 11.376,421.869 11.644,422.729 C11.853,423.4 9.263,424.691 9.29,425.443 C9.304,426.152 9.556,426.443 9.132,427.15 C8.723,427.83 10.99,429.563 10.794,430.04 C10.472,430.853 8.374,428.63 7.678,428.686 C7.26,428.678 7.413,429.092 6.537,428.72 C5.765,428.384 4.423,427.699 3.797,427.687 C2.894,427.669 1.828,429.567 1.362,429.989 C0.809,430.507 1.172,431.522 1.449,432.264 C1.641,432.803 3.48,433.68 3.469,434.604 C3.476,435.292 0.065,435.943 0.001,436.699 C-0.071,437.504 3.133,438.692 3.028,439.393 C2.878,440.384 1.701,441.188 1.595,441.589 C1.36,442.307 1.581,442.354 1.831,443.081 C2.055,443.725 0.013,445.445 0.395,446.154 C0.677,446.687 2.763,445.185 3.497,445.324 C4.101,445.412 4.661,445.882 5.279,445.942 C6.036,446.006 6.925,446.419 7.342,446.796 C8.003,447.441 8.623,448.467 8.435,449.195 C8.335,449.685 7.944,450.867 6.82,451.471 C6.047,451.873 4.883,451.315 4.313,451.701 C3.552,452.214 3.293,453.009 3.025,453.622 C2.825,454.237 2.826,454.904 3.303,455.769 C3.551,456.267 3.651,457.18 4.225,457.692 C4.697,458.096 6.695,456.53 7.284,456.944 C7.84,457.323 6.799,460.112 7.369,460.463 C7.952,460.856 9.146,460.254 9.682,460.57 C10.513,461.093 11.016,461.673 11.137,461.913 C11.412,462.426 10.021,463.573 10.215,464.64 C10.34,465.408 13.269,464.908 13.866,465.642 C14.328,466.166 14.426,466.55 14.94,466.942 C15.487,467.37 15.131,468.885 15.761,469.058 C16.39,469.229 16.902,468.586 17.58,468.398 C18.265,468.23 19.301,470.002 20.005,469.898 C20.682,469.778 20.935,467.489 21.641,467.315 C22.277,467.14 23.456,468.338 24.13,467.99 C24.587,467.754 26.133,467.986 26.7,467.372 C27.133,466.914 26.817,465.608 27.287,465.047 C27.721,464.52 28.266,464.05 28.666,463.488 C29.074,462.878 28.81,461.809 29.16,461.309 C29.839,460.314 28.638,458.823 29.516,458.319" fill="#E05656" id="path28550"/>
    </g>
    <path d="M155.236,579.998 C155.236,579.998 143.529,574.669 138.345,562.42 C133.153,550.184 147.983,542.861 153.052,552.157 C158.122,561.399 170.545,561.139 180.078,571.724 C189.612,582.307 194.982,590.679 195.138,603.419 L155.236,579.998" fill="#F9D8AE" id="path28554"/>
    <g id="g28560">
      <path d="M194.146,594.055 C189.062,576.829 167.652,575.316 148.162,575.316 C128.673,575.316 115.458,583.487 115.857,607.727 C116.302,634.676 130.04,650.901 152.46,647.388 C176.785,643.576 183.352,634.859 189.938,623.864 L194.146,594.055" fill="#F9D8AE" id="path28556"/>
      <path d="M387.383,48.937 C385.944,81.308 363.44,114.913 320.481,127.348 C293.145,135.261 240.725,145.39 231.373,167.691 C231.373,167.691 236.03,125.777 276.291,95.274 C243.792,101.716 214.297,113.359 188.684,140.525 C163.07,167.691 138.233,177.781 109.515,177.005 C109.515,177.005 184.803,-55.846 387.383,48.937" fill="#624B47" id="path28558"/>
    </g>
    <path d="M386.332,42.287 C387.218,70.508 367.148,111.972 345.346,131.479 C331.389,143.967 324.043,152.782 318.901,162.332 C363.741,134.637 455.677,155.432 433.497,57.285 L386.332,42.287" fill="#624B47" id="path28562"/>
    <path d="M245.344,634.944 C245.344,634.944 227.188,605.951 249.225,577.507 L296.308,579.225 L303.702,497.313 C332.371,430.12 366.877,456.622 366.877,456.622 C369.189,467.412 373.619,468.219 367.647,474.348 C361.674,480.478 365.335,482.826 366.877,487.451 C368.418,492.075 361.432,500.541 361.432,500.541 L361.426,500.54 C361.017,525.201 355.089,568.406 353.231,585.269 C349.812,616.315 347.188,624.749 327.701,628.682 C308.214,632.615 245.344,634.944 245.344,634.944" fill="#F9DBD9" id="path28564"/>
    <path d="M294.825,489.412 C294.825,489.412 322.93,447.867 363.273,440.462 L345.114,428.951 C345.114,428.951 304.064,439.511 277.906,480.179 L282.018,488.83 L294.825,489.412" fill="#EA908D" id="path28566"/>
  </g>
</svg>
